# This file uses centimeters as units for non-parametric coordinates.

mtllib colchão.mtl
g default
v -1.589087 1.607775 -4.028924
v -1.589087 1.857750 -3.732913
v -1.839062 1.857750 -4.028924
v 1.839062 1.857750 -4.028924
v 1.589087 1.857750 -3.732913
v 1.589087 1.607775 -4.028924
v -1.839062 2.357800 -4.028924
v -1.589087 2.357800 -3.732913
v -1.589087 2.607775 -4.028924
v 1.589087 2.607775 -4.028924
v 1.589087 2.357800 -3.732913
v 1.839062 2.357800 -4.028924
v -1.839062 2.357800 -5.630896
v -1.589087 2.607775 -5.630896
v -1.589087 2.357800 -5.926907
v 1.589087 2.357800 -5.926907
v 1.589087 2.607775 -5.630896
v 1.839062 2.357800 -5.630896
v -1.839062 1.857750 -5.630896
v -1.589087 1.857750 -5.926907
v -1.589087 1.607775 -5.630896
v 1.589087 1.607775 -5.630896
v 1.589087 1.857750 -5.926907
v 1.839062 1.857750 -5.630896
v -3.016614 -0.017445 6.410546
v -3.016614 0.385065 6.813057
v -3.419125 0.385065 6.410546
v 3.419125 0.385065 6.410546
v 3.016614 0.385065 6.813057
v 3.016614 -0.017445 6.410546
v -3.419125 1.190247 6.410546
v -3.016614 1.190247 6.813057
v -3.016614 1.592757 6.410546
v 3.016614 1.592757 6.410546
v 3.016614 1.190247 6.813057
v 3.419125 1.190247 6.410546
v -3.419125 1.190247 -6.410546
v -3.016614 1.592757 -6.410546
v -3.016614 1.190247 -6.813057
v 3.016614 1.190247 -6.813057
v 3.016614 1.592757 -6.410546
v 3.419125 1.190247 -6.410546
v -3.419125 0.385065 -6.410546
v -3.016614 0.385065 -6.813057
v -3.016614 -0.017445 -6.410546
v 3.016614 -0.017445 -6.410546
v 3.016614 0.385065 -6.813057
v 3.419125 0.385065 -6.410546
vt 0.391991 0.966270
vt 0.375000 0.966270
vt 0.375000 0.783730
vt 0.391991 0.000000
vt 0.391991 0.062494
vt 0.625000 0.966270
vt 0.608009 0.966270
vt 0.625000 0.783730
vt 0.658730 0.062494
vt 0.375000 0.283730
vt 0.375000 0.466270
vt 0.391991 0.187506
vt 0.608009 0.187506
vt 0.625000 0.283730
vt 0.375000 0.562494
vt 0.375000 0.687506
vt 0.391991 0.466270
vt 0.608009 0.466270
vt 0.625000 0.562494
vt 0.625000 0.687506
vt 0.391991 0.687506
vt 0.608009 0.687506
vt 0.608009 0.783730
vt 0.608009 0.062494
vt 0.391991 0.283730
vt 0.608009 0.283730
vt 0.391991 0.562494
vt 0.608009 0.562494
vt 0.391991 0.783730
vt 0.841270 0.062494
vt 0.841270 0.187506
vt 0.158730 0.062494
vt 0.341270 0.062494
vt 0.341270 0.187506
vt 0.158730 0.187506
vt 0.608009 0.000000
vt 0.658730 0.187506
vt 0.625000 0.466270
vt 0.389715 0.992615
vt 0.375000 0.992615
vt 0.375000 0.757385
vt 0.389715 0.757385
vt 0.389715 0.062494
vt 0.389715 0.000000
vt 0.610285 0.000000
vt 0.610285 0.062494
vt 0.367615 0.062494
vt 0.389715 0.187506
vt 0.367615 0.187506
vt 0.625000 0.992615
vt 0.610285 0.992615
vt 0.610285 0.757385
vt 0.625000 0.757385
vt 0.632385 0.062494
vt 0.632385 0.187506
vt 0.610285 0.187506
vt 0.375000 0.257385
vt 0.389715 0.257385
vt 0.389715 0.492615
vt 0.375000 0.492615
vt 0.610285 0.257385
vt 0.625000 0.257385
vt 0.625000 0.492615
vt 0.610285 0.492615
vt 0.375000 0.562494
vt 0.389715 0.562494
vt 0.389715 0.687506
vt 0.375000 0.687506
vt 0.610285 0.562494
vt 0.625000 0.562494
vt 0.625000 0.687506
vt 0.610285 0.687506
vt 0.867615 0.062494
vt 0.867615 0.187506
vt 0.132385 0.062494
vt 0.132385 0.187506
vn -0.707107 -0.707107 0.000000
vn -0.707107 -0.707107 0.000000
vn -0.707107 -0.707107 0.000000
vn -0.707107 -0.707107 0.000000
vn 0.000000 -0.764017 0.645196
vn 0.000000 -0.764017 0.645196
vn 0.000000 -0.764017 0.645196
vn 0.000000 -0.764017 0.645196
vn -0.764017 0.000000 0.645197
vn -0.764017 0.000000 0.645197
vn -0.764017 0.000000 0.645197
vn -0.764017 0.000000 0.645197
vn 0.707107 -0.707107 0.000000
vn 0.707107 -0.707107 0.000000
vn 0.707107 -0.707107 0.000000
vn 0.707107 -0.707107 0.000000
vn 0.764017 0.000000 0.645197
vn 0.764017 0.000000 0.645197
vn 0.764017 0.000000 0.645197
vn 0.764017 0.000000 0.645197
vn -0.707107 0.707107 0.000000
vn -0.707107 0.707107 0.000000
vn -0.707107 0.707107 0.000000
vn -0.707107 0.707107 0.000000
vn 0.000000 0.764017 0.645196
vn 0.000000 0.764017 0.645196
vn 0.000000 0.764017 0.645196
vn 0.000000 0.764017 0.645196
vn 0.707107 0.707107 0.000000
vn 0.707107 0.707107 0.000000
vn 0.707107 0.707107 0.000000
vn 0.707107 0.707107 0.000000
vn -0.764017 0.000000 -0.645196
vn -0.764017 0.000000 -0.645196
vn -0.764017 0.000000 -0.645196
vn -0.764017 0.000000 -0.645196
vn 0.000000 0.764017 -0.645197
vn 0.000000 0.764017 -0.645197
vn 0.000000 0.764017 -0.645197
vn 0.000000 0.764017 -0.645197
vn 0.764017 0.000000 -0.645196
vn 0.764017 0.000000 -0.645196
vn 0.764017 0.000000 -0.645196
vn 0.764017 0.000000 -0.645196
vn 0.000000 -0.764017 -0.645197
vn 0.000000 -0.764017 -0.645197
vn 0.000000 -0.764017 -0.645197
vn 0.000000 -0.764017 -0.645197
vn 0.000000 0.000000 1.000000
vn 0.000000 0.000000 1.000000
vn 0.000000 0.000000 1.000000
vn 0.000000 0.000000 1.000000
vn 0.000000 1.000000 0.000000
vn 0.000000 1.000000 0.000000
vn 0.000000 1.000000 0.000000
vn 0.000000 1.000000 0.000000
vn 0.000000 0.000000 -1.000000
vn 0.000000 0.000000 -1.000000
vn 0.000000 0.000000 -1.000000
vn 0.000000 0.000000 -1.000000
vn 0.000000 -1.000000 0.000000
vn 0.000000 -1.000000 0.000000
vn 0.000000 -1.000000 0.000000
vn 0.000000 -1.000000 0.000000
vn 1.000000 0.000000 0.000000
vn 1.000000 0.000000 0.000000
vn 1.000000 0.000000 0.000000
vn 1.000000 0.000000 0.000000
vn -1.000000 0.000000 0.000000
vn -1.000000 0.000000 0.000000
vn -1.000000 0.000000 0.000000
vn -1.000000 0.000000 0.000000
vn -0.607105 -0.607104 0.512687
vn -0.607105 -0.607104 0.512687
vn -0.607105 -0.607104 0.512687
vn 0.607105 -0.607104 0.512687
vn 0.607105 -0.607104 0.512687
vn 0.607105 -0.607104 0.512687
vn -0.607105 0.607104 0.512687
vn -0.607105 0.607104 0.512687
vn -0.607105 0.607104 0.512687
vn 0.607105 0.607104 0.512687
vn 0.607105 0.607104 0.512687
vn 0.607105 0.607104 0.512687
vn -0.607103 0.607105 -0.512688
vn -0.607103 0.607105 -0.512688
vn -0.607103 0.607105 -0.512688
vn 0.607103 0.607105 -0.512688
vn 0.607103 0.607105 -0.512688
vn 0.607103 0.607105 -0.512688
vn -0.607103 -0.607105 -0.512688
vn -0.607103 -0.607105 -0.512688
vn -0.607103 -0.607105 -0.512688
vn 0.607103 -0.607105 -0.512688
vn 0.607103 -0.607105 -0.512688
vn 0.607103 -0.607105 -0.512688
vn -0.707107 -0.707107 0.000000
vn -0.707107 -0.707107 0.000000
vn -0.707107 -0.707107 0.000000
vn -0.707107 -0.707107 0.000000
vn 0.000000 -0.707107 0.707107
vn 0.000000 -0.707107 0.707107
vn 0.000000 -0.707107 0.707107
vn 0.000000 -0.707107 0.707107
vn -0.707107 0.000000 0.707107
vn -0.707107 0.000000 0.707107
vn -0.707107 0.000000 0.707107
vn -0.707107 0.000000 0.707107
vn 0.707107 -0.707107 0.000000
vn 0.707107 -0.707107 0.000000
vn 0.707107 -0.707107 0.000000
vn 0.707107 -0.707107 0.000000
vn 0.707107 0.000000 0.707107
vn 0.707107 0.000000 0.707107
vn 0.707107 0.000000 0.707107
vn 0.707107 0.000000 0.707107
vn -0.707107 0.707107 0.000000
vn -0.707107 0.707107 0.000000
vn -0.707107 0.707107 0.000000
vn -0.707107 0.707107 0.000000
vn 0.000000 0.707107 0.707107
vn 0.000000 0.707107 0.707107
vn 0.000000 0.707107 0.707107
vn 0.000000 0.707107 0.707107
vn 0.707107 0.707107 0.000000
vn 0.707107 0.707107 0.000000
vn 0.707107 0.707107 0.000000
vn 0.707107 0.707107 0.000000
vn -0.707107 0.000000 -0.707107
vn -0.707107 0.000000 -0.707107
vn -0.707107 0.000000 -0.707107
vn -0.707107 0.000000 -0.707107
vn 0.000000 0.707107 -0.707107
vn 0.000000 0.707107 -0.707107
vn 0.000000 0.707107 -0.707107
vn 0.000000 0.707107 -0.707107
vn 0.707107 0.000000 -0.707107
vn 0.707107 0.000000 -0.707107
vn 0.707107 0.000000 -0.707107
vn 0.707107 0.000000 -0.707107
vn 0.000000 -0.707107 -0.707107
vn 0.000000 -0.707107 -0.707107
vn 0.000000 -0.707107 -0.707107
vn 0.000000 -0.707107 -0.707107
vn 0.000000 0.000000 1.000000
vn 0.000000 0.000000 1.000000
vn 0.000000 0.000000 1.000000
vn 0.000000 0.000000 1.000000
vn 0.000000 1.000000 0.000000
vn 0.000000 1.000000 0.000000
vn 0.000000 1.000000 0.000000
vn 0.000000 1.000000 0.000000
vn 0.000000 0.000000 -1.000000
vn 0.000000 0.000000 -1.000000
vn 0.000000 0.000000 -1.000000
vn 0.000000 0.000000 -1.000000
vn 0.000000 -1.000000 0.000000
vn 0.000000 -1.000000 0.000000
vn 0.000000 -1.000000 0.000000
vn 0.000000 -1.000000 0.000000
vn 1.000000 0.000000 0.000000
vn 1.000000 0.000000 0.000000
vn 1.000000 0.000000 0.000000
vn 1.000000 0.000000 0.000000
vn -1.000000 0.000000 0.000000
vn -1.000000 0.000000 0.000000
vn -1.000000 0.000000 0.000000
vn -1.000000 0.000000 0.000000
vn -0.577350 -0.577351 0.577350
vn -0.577350 -0.577351 0.577350
vn -0.577350 -0.577351 0.577350
vn 0.577350 -0.577351 0.577350
vn 0.577350 -0.577351 0.577350
vn 0.577350 -0.577351 0.577350
vn -0.577351 0.577350 0.577350
vn -0.577351 0.577350 0.577350
vn -0.577351 0.577350 0.577350
vn 0.577351 0.577350 0.577350
vn 0.577351 0.577350 0.577350
vn 0.577351 0.577350 0.577350
vn -0.577351 0.577350 -0.577350
vn -0.577351 0.577350 -0.577350
vn -0.577351 0.577350 -0.577350
vn 0.577351 0.577350 -0.577350
vn 0.577351 0.577350 -0.577350
vn 0.577351 0.577350 -0.577350
vn -0.577350 -0.577351 -0.577350
vn -0.577350 -0.577351 -0.577350
vn -0.577350 -0.577351 -0.577350
vn 0.577350 -0.577351 -0.577350
vn 0.577350 -0.577351 -0.577350
vn 0.577350 -0.577351 -0.577350
s off
g pCube4
usemtl initialShadingGroup
f 1/1/1 3/2/2 19/3/3 21/29/4
f 2/5/5 1/4/6 6/36/7 5/24/8
f 3/33/9 2/5/10 8/12/11 7/34/12
f 4/6/13 6/7/14 22/23/15 24/8/16
f 5/24/17 4/9/18 12/37/19 11/13/20
f 7/10/21 9/25/22 14/17/23 13/11/24
f 9/25/25 8/12/26 11/13/27 10/26/28
f 10/26/29 12/14/30 18/38/31 17/18/32
f 13/15/33 15/27/34 20/21/35 19/16/36
f 15/27/37 14/17/38 17/18/39 16/28/40
f 16/28/41 18/19/42 24/20/43 23/22/44
f 21/29/45 20/21/46 23/22/47 22/23/48
f 2/5/49 5/24/50 11/13/51 8/12/52
f 9/25/53 10/26/54 17/18/55 14/17/56
f 15/27/57 16/28/58 23/22/59 20/21/60
f 21/29/61 22/23/62 6/7/63 1/1/64
f 4/9/65 24/30/66 18/31/67 12/37/68
f 19/32/69 3/33/70 7/34/71 13/35/72
f 1/4/73 2/5/74 3/33/75
f 4/9/76 5/24/77 6/36/78
f 7/34/79 8/12/80 9/25/81
f 10/26/82 11/13/83 12/37/84
f 13/11/85 14/17/86 15/27/87
f 16/28/88 17/18/89 18/38/90
f 19/16/91 20/21/92 21/29/93
f 22/23/94 23/22/95 24/20/96
f 25/39/97 27/40/98 43/41/99 45/42/100
f 26/43/101 25/44/102 30/45/103 29/46/104
f 27/47/105 26/43/106 32/48/107 31/49/108
f 28/50/109 30/51/110 46/52/111 48/53/112
f 29/46/113 28/54/114 36/55/115 35/56/116
f 31/57/117 33/58/118 38/59/119 37/60/120
f 33/58/121 32/48/122 35/56/123 34/61/124
f 34/61/125 36/62/126 42/63/127 41/64/128
f 37/65/129 39/66/130 44/67/131 43/68/132
f 39/66/133 38/59/134 41/64/135 40/69/136
f 40/69/137 42/70/138 48/71/139 47/72/140
f 45/42/141 44/67/142 47/72/143 46/52/144
f 26/43/145 29/46/146 35/56/147 32/48/148
f 33/58/149 34/61/150 41/64/151 38/59/152
f 39/66/153 40/69/154 47/72/155 44/67/156
f 45/42/157 46/52/158 30/51/159 25/39/160
f 28/54/161 48/73/162 42/74/163 36/55/164
f 43/75/165 27/47/166 31/49/167 37/76/168
f 25/44/169 26/43/170 27/47/171
f 28/54/172 29/46/173 30/45/174
f 31/49/175 32/48/176 33/58/177
f 34/61/178 35/56/179 36/55/180
f 37/60/181 38/59/182 39/66/183
f 40/69/184 41/64/185 42/63/186
f 43/68/187 44/67/188 45/42/189
f 46/52/190 47/72/191 48/71/192
