# This file uses centimeters as units for non-parametric coordinates.

mtllib Fogão.mtl
g default
v -6.343403 -0.046945 2.168855
v 6.343403 -0.046945 2.168855
v -6.343403 3.984806 2.168855
v 6.343403 3.984806 2.168855
v -6.343403 3.984806 -2.168855
v 6.343403 3.984806 -2.168855
v -6.343403 -0.046945 -2.168855
v 6.343403 -0.046945 -2.168855
v -5.776413 3.984806 2.168855
v -5.776413 3.984806 -2.168855
v -5.776413 -0.046945 -2.168855
v -5.776413 -0.046945 2.168855
v -6.343403 2.358768 2.168855
v -6.343403 2.358768 -2.168855
v -5.776413 2.358768 -2.168855
v 6.343403 2.358768 -2.168855
v 6.343403 2.358768 2.168855
v -5.776413 2.358768 2.168855
v -1.494766 3.984806 2.168855
v -1.494766 3.984806 -2.168855
v -1.494766 2.358768 -2.168855
v -1.494766 -0.046945 -2.168855
v -1.494766 -0.046945 2.168855
v -1.494766 2.358768 2.168855
v -6.343403 0.167025 2.168855
v -6.343403 0.167025 -2.168855
v -5.776413 0.167025 -2.168855
v -1.494766 0.167025 -2.168855
v 6.343403 0.167025 -2.168855
v 6.343403 0.167025 2.168855
v -1.494766 0.167025 2.168855
v -5.776413 0.167025 2.168855
v -5.776413 0.167025 -1.438656
v -5.776413 2.358768 -1.438656
v -1.494766 0.167025 -1.438656
v -1.494766 2.358768 -1.438656
v 5.920633 11.394005 -0.393514
v 5.739755 11.394005 -0.748509
v 5.458029 11.394005 -1.030234
v 5.103034 11.394005 -1.211113
v 4.709520 11.394005 -1.273439
v 4.316006 11.394005 -1.211113
v 3.961012 11.394005 -1.030234
v 3.679286 11.394005 -0.748509
v 3.498408 11.394005 -0.393514
v 3.436081 11.394005 0.000000
v 3.498408 11.394005 0.393514
v 3.679286 11.394005 0.748509
v 3.961012 11.394005 1.030234
v 4.316006 11.394005 1.211112
v 4.709520 11.394005 1.273439
v 5.103034 11.394005 1.211112
v 5.458029 11.394005 1.030234
v 5.739754 11.394005 0.748508
v 5.920632 11.394005 0.393514
v 5.982959 11.394005 0.000000
v 4.709520 13.493437 0.000000
v 5.582259 5.936090 -0.291318
v 5.455026 5.936090 -0.554119
v 5.256856 5.936090 -0.762680
v 5.007148 5.936090 -0.896584
v 4.730344 5.936090 -0.942724
v 4.453540 5.936090 -0.896584
v 4.203832 5.936090 -0.762680
v 4.005662 5.936090 -0.554119
v 3.878430 5.936090 -0.291318
v 3.834589 5.936090 0.000000
v 3.878430 5.936090 0.291318
v 4.005663 5.936090 0.554119
v 4.203832 5.936090 0.762680
v 4.453541 5.936090 0.896584
v 4.730344 5.936090 0.942724
v 5.007148 5.936090 0.896584
v 5.256856 5.936090 0.762680
v 5.455026 5.936090 0.554119
v 5.582258 5.936090 0.291318
v 5.626100 5.936090 0.000000
v 5.582259 11.585124 -0.291318
v 5.455026 11.585124 -0.554119
v 5.256856 11.585124 -0.762680
v 5.007148 11.585124 -0.896584
v 4.730344 11.585124 -0.942724
v 4.453540 11.585124 -0.896584
v 4.203832 11.585124 -0.762680
v 4.005662 11.585124 -0.554119
v 3.878430 11.585124 -0.291318
v 3.834589 11.585124 0.000000
v 3.878430 11.585124 0.291318
v 4.005663 11.585124 0.554119
v 4.203832 11.585124 0.762680
v 4.453541 11.585124 0.896584
v 4.730344 11.585124 0.942724
v 5.007148 11.585124 0.896584
v 5.256856 11.585124 0.762680
v 5.455026 11.585124 0.554119
v 5.582258 11.585124 0.291318
v 5.626100 11.585124 0.000000
v 4.730344 5.936090 0.000000
v 4.730344 11.585124 0.000000
v 3.002064 5.933955 2.168855
v 6.331417 5.933955 2.168855
v 3.002064 8.165359 2.168855
v 6.331417 8.165359 2.168855
v 3.002064 8.165359 -2.168855
v 6.331417 8.165359 -2.168855
v 3.002064 5.933955 -2.168855
v 6.331417 5.933955 -2.168855
v -0.977169 3.937573 2.168855
v 6.334591 3.937573 2.168855
v -0.977169 6.168978 2.168855
v 6.334591 6.168978 2.168855
v -0.977169 6.168978 -2.168855
v 6.334591 6.168978 -2.168855
v -0.977169 3.937573 -2.168855
v 6.334591 3.937573 -2.168855
vt 0.375000 0.000000
vt 0.625000 0.000000
vt 0.375000 0.250000
vt 0.625000 0.250000
vt 0.375000 0.500000
vt 0.625000 0.500000
vt 0.375000 0.750000
vt 0.625000 0.750000
vt 0.375000 1.000000
vt 0.625000 1.000000
vt 0.875000 0.000000
vt 0.875000 0.250000
vt 0.125000 0.000000
vt 0.125000 0.250000
vt 0.386173 0.250000
vt 0.386173 0.500000
vt 0.386173 0.750000
vt 0.386173 0.000000
vt 0.386173 1.000000
vt 0.375000 0.149173
vt 0.125000 0.149173
vt 0.375000 0.600827
vt 0.386173 0.600827
vt 0.625000 0.600827
vt 0.875000 0.149173
vt 0.625000 0.149173
vt 0.386173 0.149173
vt 0.470545 0.250000
vt 0.470545 0.500000
vt 0.470545 0.600827
vt 0.470545 0.750000
vt 0.470545 0.000000
vt 0.470545 1.000000
vt 0.470545 0.149173
vt 0.375000 0.013268
vt 0.125000 0.013268
vt 0.375000 0.736732
vt 0.386173 0.736732
vt 0.470545 0.736732
vt 0.625000 0.736732
vt 0.875000 0.013268
vt 0.625000 0.013268
vt 0.470545 0.013268
vt 0.386173 0.013268
vt 0.386173 0.149173
vt 0.386173 0.013268
vt 0.470545 0.013268
vt 0.470545 0.149173
vt 0.737764 0.172746
vt 0.750000 0.250000
vt 0.737764 0.327254
vt 0.702254 0.396946
vt 0.646946 0.452254
vt 0.577254 0.487764
vt 0.500000 0.500000
vt 0.422746 0.487764
vt 0.353054 0.452254
vt 0.297746 0.396946
vt 0.262236 0.327254
vt 0.250000 0.250000
vt 0.262236 0.172746
vt 0.297746 0.103054
vt 0.353054 0.047746
vt 0.422746 0.012236
vt 0.500000 -0.000000
vt 0.577254 0.012236
vt 0.646946 0.047746
vt 0.702254 0.103054
vt 0.250000 0.500000
vt 0.275000 0.500000
vt 0.500000 1.000000
vt 0.300000 0.500000
vt 0.325000 0.500000
vt 0.350000 0.500000
vt 0.375000 0.500000
vt 0.400000 0.500000
vt 0.425000 0.500000
vt 0.450000 0.500000
vt 0.475000 0.500000
vt 0.500000 0.500000
vt 0.525000 0.500000
vt 0.550000 0.500000
vt 0.575000 0.500000
vt 0.600000 0.500000
vt 0.625000 0.500000
vt 0.650000 0.500000
vt 0.675000 0.500000
vt 0.700000 0.500000
vt 0.725000 0.500000
vt 0.750000 0.500000
vt 0.375000 0.312500
vt 0.387500 0.312500
vt 0.387500 0.688440
vt 0.375000 0.688440
vt 0.400000 0.312500
vt 0.400000 0.688440
vt 0.412500 0.312500
vt 0.412500 0.688440
vt 0.425000 0.312500
vt 0.425000 0.688440
vt 0.437500 0.312500
vt 0.437500 0.688440
vt 0.450000 0.312500
vt 0.450000 0.688440
vt 0.462500 0.312500
vt 0.462500 0.688440
vt 0.475000 0.312500
vt 0.475000 0.688440
vt 0.487500 0.312500
vt 0.487500 0.688440
vt 0.500000 0.312500
vt 0.500000 0.688440
vt 0.512500 0.312500
vt 0.512500 0.688440
vt 0.525000 0.312500
vt 0.525000 0.688440
vt 0.537500 0.312500
vt 0.537500 0.688440
vt 0.550000 0.312500
vt 0.550000 0.688440
vt 0.562500 0.312500
vt 0.562500 0.688440
vt 0.575000 0.312500
vt 0.575000 0.688440
vt 0.587500 0.312500
vt 0.587500 0.688440
vt 0.600000 0.312500
vt 0.600000 0.688440
vt 0.612500 0.312500
vt 0.612500 0.688440
vt 0.625000 0.312500
vt 0.625000 0.688440
vt 0.626409 0.064408
vt 0.648603 0.107966
vt 0.500000 0.150000
vt 0.591842 0.029841
vt 0.548284 0.007647
vt 0.500000 -0.000000
vt 0.451716 0.007647
vt 0.408159 0.029841
vt 0.373591 0.064409
vt 0.351397 0.107966
vt 0.343750 0.156250
vt 0.351397 0.204534
vt 0.373591 0.248091
vt 0.408159 0.282659
vt 0.451716 0.304853
vt 0.500000 0.312500
vt 0.548284 0.304853
vt 0.591841 0.282659
vt 0.626409 0.248091
vt 0.648603 0.204534
vt 0.656250 0.156250
vt 0.648603 0.892034
vt 0.626409 0.935591
vt 0.500000 0.837500
vt 0.591841 0.970159
vt 0.548284 0.992353
vt 0.500000 1.000000
vt 0.451716 0.992353
vt 0.408159 0.970159
vt 0.373591 0.935591
vt 0.351397 0.892034
vt 0.343750 0.843750
vt 0.351397 0.795466
vt 0.373591 0.751909
vt 0.408159 0.717341
vt 0.451716 0.695147
vt 0.500000 0.687500
vt 0.548284 0.695147
vt 0.591842 0.717341
vt 0.626409 0.751908
vt 0.648603 0.795466
vt 0.656250 0.843750
vt 0.375000 0.000000
vt 0.625000 0.000000
vt 0.625000 0.250000
vt 0.375000 0.250000
vt 0.625000 0.500000
vt 0.375000 0.500000
vt 0.625000 0.750000
vt 0.375000 0.750000
vt 0.625000 1.000000
vt 0.375000 1.000000
vt 0.875000 0.000000
vt 0.875000 0.250000
vt 0.125000 0.000000
vt 0.125000 0.250000
vt 0.375000 0.000000
vt 0.625000 0.000000
vt 0.625000 0.250000
vt 0.375000 0.250000
vt 0.625000 0.500000
vt 0.375000 0.500000
vt 0.625000 0.750000
vt 0.375000 0.750000
vt 0.625000 1.000000
vt 0.375000 1.000000
vt 0.875000 0.000000
vt 0.875000 0.250000
vt 0.125000 0.000000
vt 0.125000 0.250000
vn 0.000000 0.000000 1.000000
vn 0.000000 0.000000 1.000000
vn 0.000000 0.000000 1.000000
vn 0.000000 0.000000 1.000000
vn 0.000000 1.000000 0.000000
vn 0.000000 1.000000 0.000000
vn 0.000000 1.000000 0.000000
vn 0.000000 1.000000 0.000000
vn 0.000000 0.000000 -1.000000
vn 0.000000 0.000000 -1.000000
vn 0.000000 0.000000 -1.000000
vn 0.000000 0.000000 -1.000000
vn 0.000000 -1.000000 0.000000
vn 0.000000 -1.000000 0.000000
vn 0.000000 -1.000000 0.000000
vn 0.000000 -1.000000 0.000000
vn 1.000000 0.000000 0.000000
vn 1.000000 0.000000 0.000000
vn 1.000000 0.000000 0.000000
vn 1.000000 0.000000 0.000000
vn -1.000000 0.000000 0.000000
vn -1.000000 0.000000 0.000000
vn -1.000000 0.000000 0.000000
vn -1.000000 0.000000 0.000000
vn 0.000000 1.000000 0.000000
vn 0.000000 1.000000 0.000000
vn 0.000000 0.000000 -1.000000
vn 0.000000 0.000000 -1.000000
vn 0.000000 -1.000000 0.000000
vn 0.000000 -1.000000 0.000000
vn 0.000000 0.000000 1.000000
vn 0.000000 0.000000 1.000000
vn -1.000000 0.000000 0.000000
vn -1.000000 0.000000 0.000000
vn -1.000000 0.000000 0.000000
vn -1.000000 0.000000 0.000000
vn 0.000000 0.000000 -1.000000
vn 0.000000 0.000000 -1.000000
vn 0.000000 0.000000 -1.000000
vn 0.000000 0.000000 -1.000000
vn 0.000000 0.000000 -1.000000
vn 0.000000 0.000000 -1.000000
vn 1.000000 0.000000 0.000000
vn 1.000000 0.000000 0.000000
vn 1.000000 0.000000 0.000000
vn 1.000000 0.000000 0.000000
vn 0.000000 0.000000 1.000000
vn 0.000000 0.000000 1.000000
vn 0.000000 0.000000 1.000000
vn 0.000000 0.000000 1.000000
vn 0.000000 0.000000 1.000000
vn 0.000000 0.000000 1.000000
vn 0.000000 1.000000 0.000000
vn 0.000000 1.000000 0.000000
vn 0.000000 0.000000 -1.000000
vn 0.000000 0.000000 -1.000000
vn 0.000000 0.000000 -1.000000
vn 0.000000 0.000000 -1.000000
vn 0.000000 -1.000000 0.000000
vn 0.000000 -1.000000 0.000000
vn 0.000000 0.000000 1.000000
vn 0.000000 0.000000 1.000000
vn 0.000000 0.000000 1.000000
vn 0.000000 0.000000 1.000000
vn 0.000000 0.000000 1.000000
vn 0.000000 0.000000 1.000000
vn 0.000000 0.000000 1.000000
vn 0.000000 0.000000 1.000000
vn 1.000000 0.000000 0.000000
vn 1.000000 0.000000 0.000000
vn 1.000000 0.000000 0.000000
vn 1.000000 0.000000 0.000000
vn 0.000000 1.000000 0.000000
vn 0.000000 1.000000 0.000000
vn 0.000000 1.000000 0.000000
vn 0.000000 1.000000 0.000000
vn -1.000000 0.000000 0.000000
vn -1.000000 0.000000 0.000000
vn -1.000000 0.000000 0.000000
vn -1.000000 0.000000 0.000000
vn 0.000000 -1.000000 0.000000
vn 0.000000 -1.000000 0.000000
vn 0.000000 -1.000000 0.000000
vn 0.000000 -1.000000 0.000000
vn 0.000000 -1.000000 0.000000
vn 0.000000 -1.000000 0.000000
vn 0.000000 -1.000000 0.000000
vn 0.000000 -1.000000 0.000000
vn 0.000000 -1.000000 0.000000
vn 0.000000 -1.000000 0.000000
vn 0.000000 -1.000000 0.000000
vn 0.000000 -1.000000 0.000000
vn 0.000000 -1.000000 0.000000
vn 0.000000 -1.000000 0.000000
vn 0.000000 -1.000000 0.000000
vn 0.000000 -1.000000 0.000000
vn 0.000000 -1.000000 0.000000
vn 0.000000 -1.000000 0.000000
vn 0.000000 -1.000000 0.000000
vn 0.000000 -1.000000 0.000000
vn 0.000000 -1.000000 0.000000
vn 0.000000 -1.000000 0.000000
vn 0.000000 -1.000000 0.000000
vn 0.000000 -1.000000 0.000000
vn 0.813160 0.518616 -0.264211
vn 0.691715 0.518617 -0.502561
vn 0.000000 1.000000 0.000000
vn 0.502561 0.518617 -0.691715
vn 0.264212 0.518616 -0.813160
vn -0.000000 0.518617 -0.855007
vn -0.264212 0.518616 -0.813160
vn -0.502561 0.518616 -0.691715
vn -0.691715 0.518617 -0.502560
vn -0.813160 0.518616 -0.264211
vn -0.855007 0.518616 0.000000
vn -0.813160 0.518616 0.264211
vn -0.691715 0.518616 0.502560
vn -0.502561 0.518616 0.691715
vn -0.264212 0.518617 0.813160
vn 0.000000 0.518616 0.855007
vn 0.264212 0.518616 0.813160
vn 0.502561 0.518616 0.691715
vn 0.691716 0.518616 0.502561
vn 0.813160 0.518616 0.264211
vn 0.855007 0.518616 0.000001
vn 0.955500 0.000000 -0.294992
vn 0.822947 0.000000 -0.568118
vn 0.822947 0.000000 -0.568118
vn 0.955500 0.000000 -0.294992
vn 0.607416 0.000000 -0.794384
vn 0.607416 0.000000 -0.794384
vn 0.323562 0.000000 -0.946207
vn 0.323562 0.000000 -0.946207
vn -0.000000 0.000000 -1.000000
vn -0.000000 0.000000 -1.000000
vn -0.323562 0.000000 -0.946207
vn -0.323562 0.000000 -0.946207
vn -0.607416 0.000000 -0.794384
vn -0.607416 0.000000 -0.794384
vn -0.822948 0.000000 -0.568117
vn -0.822948 0.000000 -0.568117
vn -0.955500 0.000000 -0.294993
vn -0.955500 0.000000 -0.294993
vn -1.000000 0.000000 0.000000
vn -1.000000 0.000000 0.000000
vn -0.955499 0.000000 0.294993
vn -0.955499 0.000000 0.294993
vn -0.822947 0.000000 0.568118
vn -0.822947 0.000000 0.568118
vn -0.607416 0.000000 0.794384
vn -0.607416 0.000000 0.794384
vn -0.323562 0.000000 0.946207
vn -0.323562 0.000000 0.946207
vn 0.000000 0.000000 1.000000
vn 0.000000 0.000000 1.000000
vn 0.323562 0.000000 0.946207
vn 0.323562 0.000000 0.946207
vn 0.607416 0.000000 0.794384
vn 0.607416 0.000000 0.794384
vn 0.822947 0.000000 0.568118
vn 0.822947 0.000000 0.568118
vn 0.955500 0.000000 0.294993
vn 0.955500 0.000000 0.294993
vn 1.000000 0.000000 0.000002
vn 1.000000 0.000000 0.000002
vn 0.000000 -1.000000 0.000001
vn 0.000000 -1.000000 0.000000
vn 0.000000 -1.000000 0.000000
vn 0.000000 -1.000000 0.000001
vn 0.000000 -1.000000 0.000000
vn 0.000000 -1.000000 0.000000
vn 0.000000 -1.000000 0.000000
vn 0.000000 -1.000000 0.000000
vn 0.000000 -1.000000 0.000000
vn 0.000000 -1.000000 0.000000
vn 0.000000 -1.000000 0.000000
vn 0.000000 -1.000000 0.000000
vn 0.000000 -1.000000 0.000000
vn 0.000000 -1.000000 0.000000
vn 0.000000 -1.000000 0.000000
vn 0.000000 -1.000000 0.000000
vn 0.000000 -1.000000 0.000000
vn 0.000000 -1.000000 0.000000
vn 0.000000 -1.000000 0.000000
vn 0.000000 -1.000000 0.000000
vn 0.000000 -1.000000 0.000000
vn 0.000000 1.000000 0.000000
vn 0.000000 1.000000 0.000000
vn 0.000000 1.000000 -0.000000
vn 0.000000 1.000000 0.000000
vn 0.000000 1.000000 0.000000
vn 0.000000 1.000000 0.000000
vn 0.000000 1.000000 0.000000
vn 0.000000 1.000000 0.000002
vn 0.000000 1.000000 -0.000002
vn 0.000000 1.000000 -0.000000
vn 0.000000 1.000000 0.000000
vn 0.000000 1.000000 -0.000004
vn 0.000000 1.000000 0.000000
vn 0.000000 1.000000 0.000000
vn 0.000000 1.000000 0.000000
vn 0.000000 1.000000 0.000000
vn 0.000000 1.000000 -0.000001
vn 0.000000 1.000000 0.000001
vn 0.000000 1.000000 0.000002
vn 0.000000 1.000000 -0.000004
vn 0.000000 1.000000 -0.000004
vn 0.000000 0.000000 1.000000
vn 0.000000 0.000000 1.000000
vn 0.000000 0.000000 1.000000
vn 0.000000 0.000000 1.000000
vn 0.000000 1.000000 0.000000
vn 0.000000 1.000000 0.000000
vn 0.000000 1.000000 0.000000
vn 0.000000 1.000000 0.000000
vn 0.000000 0.000000 -1.000000
vn 0.000000 0.000000 -1.000000
vn 0.000000 0.000000 -1.000000
vn 0.000000 0.000000 -1.000000
vn 0.000000 -1.000000 0.000000
vn 0.000000 -1.000000 0.000000
vn 0.000000 -1.000000 0.000000
vn 0.000000 -1.000000 0.000000
vn 1.000000 0.000000 0.000000
vn 1.000000 0.000000 0.000000
vn 1.000000 0.000000 0.000000
vn 1.000000 0.000000 0.000000
vn -1.000000 0.000000 0.000000
vn -1.000000 0.000000 0.000000
vn -1.000000 0.000000 0.000000
vn -1.000000 0.000000 0.000000
vn 0.000000 0.000000 1.000000
vn 0.000000 0.000000 1.000000
vn 0.000000 0.000000 1.000000
vn 0.000000 0.000000 1.000000
vn 0.000000 1.000000 0.000000
vn 0.000000 1.000000 0.000000
vn 0.000000 1.000000 0.000000
vn 0.000000 1.000000 0.000000
vn 0.000000 0.000000 -1.000000
vn 0.000000 0.000000 -1.000000
vn 0.000000 0.000000 -1.000000
vn 0.000000 0.000000 -1.000000
vn 0.000000 -1.000000 0.000000
vn 0.000000 -1.000000 0.000000
vn 0.000000 -1.000000 0.000000
vn 0.000000 -1.000000 0.000000
vn 1.000000 0.000000 0.000000
vn 1.000000 0.000000 0.000000
vn 1.000000 0.000000 0.000000
vn 1.000000 0.000000 0.000000
vn -1.000000 0.000000 0.000000
vn -1.000000 0.000000 0.000000
vn -1.000000 0.000000 0.000000
vn -1.000000 0.000000 0.000000
s 1
g pCube3
usemtl initialShadingGroup
f 1/1/1 12/18/2 32/44/3 25/35/4
s 2
f 3/3/5 9/15/6 10/16/7 5/5/8
s 3
f 26/37/9 27/38/10 11/17/11 7/7/12
s 4
f 7/7/13 11/17/14 12/19/15 1/9/16
s 5
f 2/2/17 8/11/18 29/41/19 30/42/20
s 6
f 7/13/21 1/1/22 25/35/23 26/36/24
s 2
f 9/15/6 19/28/25 20/29/26 10/16/7
s 3
f 11/17/11 27/38/10 28/39/27 22/31/28
s 4
f 12/19/15 11/17/14 22/31/29 23/33/30
s 1
f 32/44/3 12/18/2 23/32/31 31/43/32
s 6
f 14/21/33 13/20/34 3/3/35 5/14/36
s 3
f 5/5/37 10/16/38 15/23/39 14/22/40
f 21/30/41 15/23/39 10/16/38 20/29/42
s 5
f 17/26/43 16/25/44 6/12/45 4/4/46
s 1
f 9/15/47 18/27/48 24/34/49 19/28/50
f 13/20/51 18/27/48 9/15/47 3/3/52
s 2
f 19/28/25 4/4/53 6/6/54 20/29/26
s 3
f 16/24/55 21/30/41 20/29/42 6/6/56
f 22/31/28 28/39/27 29/40/57 8/8/58
s 4
f 23/33/30 22/31/29 8/8/59 2/10/60
s 1
f 31/43/32 23/32/31 2/2/61 30/42/62
f 19/28/50 24/34/49 17/26/63 4/4/64
s 6
f 26/36/24 25/35/23 13/20/34 14/21/33
s 3
f 14/22/40 15/23/39 27/38/10 26/37/9
f 28/39/27 27/38/10 15/23/39 21/30/41
f 29/40/57 28/39/27 21/30/41 16/24/55
s 5
f 30/42/20 29/41/19 16/25/44 17/26/43
s 1
f 24/34/49 31/43/32 30/42/62 17/26/63
s off
f 34/45/65 33/46/66 35/47/67 36/48/68
s 1
f 25/35/4 32/44/3 18/27/48 13/20/51
s off
f 18/27/69 32/44/70 33/46/71 34/45/72
f 32/44/73 31/43/74 35/47/75 33/46/76
f 31/43/77 24/34/78 36/48/79 35/47/80
f 24/34/81 18/27/82 34/45/83 36/48/84
f 37/49/85 56/50/86 55/51/87 54/52/88 53/53/89 52/54/90 51/55/91 50/56/92 49/57/93 48/58/94 47/59/95 46/60/96 45/61/97 44/62/98 43/63/99 42/64/100 41/65/101 40/66/102 39/67/103 38/68/104
s 9
f 37/69/105 38/70/106 57/71/107
f 38/70/106 39/72/108 57/71/107
f 39/72/108 40/73/109 57/71/107
f 40/73/109 41/74/110 57/71/107
f 41/74/110 42/75/111 57/71/107
f 42/75/111 43/76/112 57/71/107
f 43/76/112 44/77/113 57/71/107
f 44/77/113 45/78/114 57/71/107
f 45/78/114 46/79/115 57/71/107
f 46/79/115 47/80/116 57/71/107
f 47/80/116 48/81/117 57/71/107
f 48/81/117 49/82/118 57/71/107
f 49/82/118 50/83/119 57/71/107
f 50/83/119 51/84/120 57/71/107
f 51/84/120 52/85/121 57/71/107
f 52/85/121 53/86/122 57/71/107
f 53/86/122 54/87/123 57/71/107
f 54/87/123 55/88/124 57/71/107
f 55/88/124 56/89/125 57/71/107
f 56/89/125 37/90/105 57/71/107
s 10
f 58/91/126 59/92/127 79/93/128 78/94/129
f 59/92/127 60/95/130 80/96/131 79/93/128
f 60/95/130 61/97/132 81/98/133 80/96/131
f 61/97/132 62/99/134 82/100/135 81/98/133
f 62/99/134 63/101/136 83/102/137 82/100/135
f 63/101/136 64/103/138 84/104/139 83/102/137
f 64/103/138 65/105/140 85/106/141 84/104/139
f 65/105/140 66/107/142 86/108/143 85/106/141
f 66/107/142 67/109/144 87/110/145 86/108/143
f 67/109/144 68/111/146 88/112/147 87/110/145
f 68/111/146 69/113/148 89/114/149 88/112/147
f 69/113/148 70/115/150 90/116/151 89/114/149
f 70/115/150 71/117/152 91/118/153 90/116/151
f 71/117/152 72/119/154 92/120/155 91/118/153
f 72/119/154 73/121/156 93/122/157 92/120/155
f 73/121/156 74/123/158 94/124/159 93/122/157
f 74/123/158 75/125/160 95/126/161 94/124/159
f 75/125/160 76/127/162 96/128/163 95/126/161
f 76/127/162 77/129/164 97/130/165 96/128/163
f 77/129/164 58/131/126 78/132/129 97/130/165
s 11
f 59/133/166 58/134/167 98/135/168
f 60/136/169 59/133/166 98/135/168
f 61/137/170 60/136/169 98/135/168
f 62/138/171 61/137/170 98/135/168
f 63/139/172 62/138/171 98/135/168
f 64/140/173 63/139/172 98/135/168
f 65/141/174 64/140/173 98/135/168
f 66/142/175 65/141/174 98/135/168
f 67/143/176 66/142/175 98/135/168
f 68/144/177 67/143/176 98/135/168
f 69/145/178 68/144/177 98/135/168
f 70/146/179 69/145/178 98/135/168
f 71/147/180 70/146/179 98/135/168
f 72/148/181 71/147/180 98/135/168
f 73/149/182 72/148/181 98/135/168
f 74/150/183 73/149/182 98/135/168
f 75/151/184 74/150/183 98/135/168
f 76/152/185 75/151/184 98/135/168
f 77/153/186 76/152/185 98/135/168
f 58/134/167 77/153/186 98/135/168
s 12
f 78/154/187 79/155/188 99/156/189
f 79/155/188 80/157/190 99/156/189
f 80/157/190 81/158/191 99/156/189
f 81/158/191 82/159/192 99/156/189
f 82/159/192 83/160/193 99/156/189
f 83/160/193 84/161/194 99/156/189
f 84/161/194 85/162/195 99/156/189
f 85/162/195 86/163/196 99/156/189
f 86/163/196 87/164/197 99/156/189
f 87/164/197 88/165/198 99/156/189
f 88/165/198 89/166/199 99/156/189
f 89/166/199 90/167/200 99/156/189
f 90/167/200 91/168/201 99/156/189
f 91/168/201 92/169/202 99/156/189
f 92/169/202 93/170/203 99/156/189
f 93/170/203 94/171/204 99/156/189
f 94/171/204 95/172/205 99/156/189
f 95/172/205 96/173/206 99/156/189
f 96/173/206 97/174/207 99/156/189
f 97/174/207 78/154/187 99/156/189
s off
f 100/175/208 101/176/209 103/177/210 102/178/211
f 102/178/212 103/177/213 105/179/214 104/180/215
f 104/180/216 105/179/217 107/181/218 106/182/219
f 106/182/220 107/181/221 101/183/222 100/184/223
f 101/176/224 107/185/225 105/186/226 103/177/227
f 106/187/228 100/175/229 102/178/230 104/188/231
f 108/189/232 109/190/233 111/191/234 110/192/235
f 110/192/236 111/191/237 113/193/238 112/194/239
f 112/194/240 113/193/241 115/195/242 114/196/243
f 114/196/244 115/195/245 109/197/246 108/198/247
f 109/190/248 115/199/249 113/200/250 111/191/251
f 114/201/252 108/189/253 110/192/254 112/202/255
